<?xml version="1.0" encoding="utf-8" ?><svg xmlns="http://www.w3.org/2000/svg" xmlns:xlink="http://www.w3.org/1999/xlink" width="1024" height="1024" viewBox="0 0 1024 1024"><path fill="#0A0A12" d="M0 0L1024 0L1024 1024L0 1024L0 0Z"/><path fill="#2BEBA9" d="M466.053 397.68C468.191 397.423 472.17 397.447 474.377 397.445C527.149 397.191 577.817 418.115 615.034 455.53C639.774 480.286 660.994 518.231 662.323 554.156C662.845 568.263 648.267 584.755 638.441 594.358C614.482 617.773 586.956 628.565 553.75 628.512L419.525 628.516L386.527 628.6C380.638 628.623 373.707 628.93 367.876 628.171C365.356 627.842 363.823 625.249 362.545 623.289C361.896 616.064 363.167 605.947 364.104 598.667C368.843 561.876 384.773 529.081 411.097 502.933C415.334 498.725 418.93 495.282 423.604 491.397C428.704 487.157 436.278 482.588 440.24 477.495C450.598 464.18 441.216 445.155 439.848 430.086C439.115 422.013 440.184 414.964 445.449 408.438C451.108 401.424 457.263 398.632 466.053 397.68Z"/><path fill="#FDFDFD" d="M558.217 479.261C569.81 477.237 580.855 484.971 582.919 496.556C584.983 508.141 577.289 519.213 565.711 521.318C554.076 523.434 542.936 515.693 540.861 504.05C538.787 492.407 546.567 481.294 558.217 479.261Z"/></svg>