<?xml version="1.0" encoding="utf-8" ?><svg xmlns="http://www.w3.org/2000/svg" xmlns:xlink="http://www.w3.org/1999/xlink" width="1024" height="1024" viewBox="0 0 1024 1024"><path fill="#8B5CF6" d="M408.608 215.667C421.603 213.746 450.085 211.579 460.776 220.05C466.015 224.2 469.047 229.636 469.81 236.287C470.322 240.587 469.78 244.947 468.231 248.991C466.604 253.328 463.349 258.25 461.154 262.43C458.188 268.076 455.386 273.741 452.603 279.479C441.122 303.042 430.46 326.995 420.635 351.296L420.563 351.704C419.178 354.106 417.773 357.948 416.485 360.647C415.042 363.513 413.896 366.162 412.671 369.096C411.334 371.413 409.659 376.247 408.766 378.733L409.657 379.091C411.109 375.891 412.815 372.823 414.427 369.704C415.394 368.062 416.685 366.015 417.566 364.399C420.262 360.161 423.666 354.922 425.837 350.441C426.848 349.368 432.893 339.656 434.005 337.939C438.011 331.815 442.204 325.814 446.579 319.947C474.177 282.548 503.428 252.055 546.777 232.958C587.164 215.26 632.155 210.957 675.165 220.677C684.875 222.929 697.327 227.334 706.555 230.889C716.86 234.859 727.679 238.3 732.184 249.366C734.729 255.618 734.593 263.058 731.99 269.261C730.287 273.286 727.406 276.703 723.725 279.061C718.9 282.116 695.297 290.57 688.532 293.166L621.665 319.341L621.447 320.109C619.24 320.878 618.31 321.285 616.529 322.655C618.385 322.482 619.64 322.376 621.426 321.746C636.976 318.552 656.605 318.481 672.566 317.774C680.266 317.433 710.859 314.417 716.123 316.582C764.879 336.638 802.176 377 829.465 421.091C832.839 426.841 837.286 431.151 838.617 437.962C841.569 453.065 833.244 466.739 817.737 469.373C807.308 471.145 800.081 465.816 791.354 461.094C780.768 455.44 770.321 449.53 760.022 443.369C753.447 439.52 745.943 435.637 739.637 431.583C739.078 430.947 738.004 430.326 737.278 429.827L736.403 429.713C735.821 429.623 735.008 429.408 734.467 429.774C734.34 429.859 734.266 430.004 734.271 430.157C734.288 430.893 736.51 432.711 737.115 433.149C738.943 435.103 739.136 435.203 740.379 437.47C752.278 450.885 763.642 465.171 772.906 480.544C799.236 524.241 808.29 575.895 798.985 626.2C779.913 729.304 681.465 819.028 573.402 809.511C567.313 808.977 557.742 808.081 552.266 806.015C557.931 802.916 567.896 800.681 574.512 797.436C617.25 776.477 653.734 739.567 673.794 696.358C675.648 692.365 679.362 686.313 679.54 681.976C704.936 631.66 690.616 569.629 647.889 533.579C643.949 530.224 639.816 527.104 635.512 524.232C631.649 521.676 625.766 518.346 622.573 515.185C626.423 508.221 634.553 496.356 639.093 489.415C640.218 488.019 641.456 486.161 642.513 484.66C642.238 481.864 639.366 485.721 638.874 486.495C636.276 488.847 635.476 490.21 632.502 491.904C618.675 503.93 605.491 517.441 592.241 530.103C586.552 535.54 577.184 545.387 571.077 549.923C553.907 550.078 531.826 548.069 515.539 551.879C514.698 551.701 513.817 551.629 513 551.367L513.179 551.435C513.053 551.337 512.927 551.239 512.802 551.14C512.98 550.347 515.051 550.583 513.6 549.174C516.996 546.603 523.478 544.338 527.179 541.577C540.714 531.478 573.521 513.367 565.767 492.911C568.291 485.437 575.09 474.532 578.807 467.179C588.235 448.526 593.87 432.464 613.663 422.206C643.717 406.63 675.276 435.825 687.921 461.191C694.869 475.252 696.627 488.177 698.558 503.493C698.5 504.85 698.543 505.714 698.612 507.059L698.889 514.325C699.028 515.534 698.714 518.171 699.855 518.278C700.483 509.76 701.424 496.766 700.935 488.395C701.446 469.245 696.632 440.757 684.91 425.272C673.795 410.589 654.986 399.206 636.674 396.756C617.916 394.246 600.511 403.407 586.082 414.358C586.313 405.736 586.575 398.154 584.634 389.655C580.359 371.32 568.955 355.445 552.945 345.54C520.362 325.391 479.659 343.572 459.282 372.307C455.765 377.265 452.874 381.756 449.771 386.959C448.679 388.287 447.324 390.345 446.688 391.936C445.911 393.144 445.298 394.181 444.597 395.424L445.453 396.593C446.187 395.603 446.831 394.722 447.507 393.689C448.368 392.591 449.172 391.692 449.816 390.455C463.934 372.846 483.944 359.404 506.716 356.295C532.182 352.819 556.512 367.249 558.949 394.103C559.542 400.639 558.553 408.802 555.864 414.99C548.524 428.469 535.668 441.94 526.174 454.179C512.501 471.804 498.131 488.536 484.354 506.035C481.863 509.2 478.74 512.281 476.36 515.495C477.21 505.824 478.911 499.628 474.604 489.817C471.02 481.65 465.453 475.772 457.128 472.428C462.093 460.806 468.888 446.781 474.928 435.64C477.015 431.791 485.133 422.057 488.184 418.526C489.616 417.008 490.68 415.709 491.996 414.101C490.118 413.176 489.494 414.101 488.088 415.701C485.04 417.776 484.315 419.123 480.875 420.343C466.293 431.04 452.379 443.252 438.112 454.42C425.664 464.164 411.842 472.077 398.136 479.925C375.768 492.41 352.878 505.016 328.198 512.288C324.738 513.307 323.127 513.925 319.472 514.029C300.571 514.353 267.785 505.297 251.516 495.751C239.624 486.586 221.12 475.313 216.351 460.483C214.589 455.005 219.561 447.099 224.87 446.254C255.451 441.389 286.754 440.536 317.535 436.501C317.919 436.528 318.302 436.555 318.686 436.582C320.087 435.973 320.322 435.862 321.572 435.077C319.177 434.939 317.55 434.894 315.131 434.958C294.079 436.464 269.869 436.098 248.733 435.196C240.213 434.832 230.744 435.266 222.381 434.581C214.117 434.548 202.573 435.488 195.344 430.872C188.795 426.691 185.429 414.211 188.438 407.132C191.919 398.941 198.102 390.323 202.95 382.587C212.579 367.221 222.574 351.876 232.522 336.7C252.025 306.954 275.423 293.328 310.01 286.724C311.882 283.702 313.802 280.709 315.769 277.747C338.703 243.272 368.027 223.85 408.608 215.667ZM315.131 434.958C317.55 434.894 319.177 434.939 321.572 435.077C320.322 435.862 320.087 435.973 318.686 436.582C318.302 436.555 317.919 436.528 317.535 436.501C286.754 440.536 255.451 441.389 224.87 446.254C219.561 447.099 214.589 455.005 216.351 460.483C221.12 475.313 239.624 486.586 251.516 495.751C267.785 505.297 300.571 514.353 319.472 514.029C355.084 489.077 371.419 456.763 387.518 416.679C406.712 368.89 424.558 307.245 420.214 255.111C419.216 243.129 413.18 226.746 408.608 215.667C368.027 223.85 338.703 243.272 315.769 277.747C313.802 280.709 311.882 283.702 310.01 286.724C275.423 293.328 252.025 306.954 232.522 336.7C222.574 351.876 212.579 367.221 202.95 382.587C198.102 390.323 191.919 398.941 188.438 407.132C185.429 414.211 188.795 426.691 195.344 430.872C202.573 435.488 214.117 434.548 222.381 434.581C230.744 435.266 240.213 434.832 248.733 435.196C269.869 436.098 294.079 436.464 315.131 434.958Z"/><path fill="#11FD3D" d="M310.01 286.724C311.882 283.702 313.802 280.709 315.769 277.747C338.703 243.272 368.027 223.85 408.608 215.667C413.18 226.746 419.216 243.129 420.214 255.111C424.558 307.245 406.712 368.89 387.518 416.679C371.419 456.763 355.084 489.077 319.472 514.029C300.571 514.353 267.785 505.297 251.516 495.751C239.624 486.586 221.12 475.313 216.351 460.483C214.589 455.005 219.561 447.099 224.87 446.254C255.451 441.389 286.754 440.536 317.535 436.501C317.919 436.528 318.302 436.555 318.686 436.582C320.087 435.973 320.322 435.862 321.572 435.077C319.177 434.939 317.55 434.894 315.131 434.958C294.079 436.464 269.869 436.098 248.733 435.196C240.213 434.832 230.744 435.266 222.381 434.581C214.117 434.548 202.573 435.488 195.344 430.872C188.795 426.691 185.429 414.211 188.438 407.132C191.919 398.941 198.102 390.323 202.95 382.587C212.579 367.221 222.574 351.876 232.522 336.7C252.025 306.954 275.423 293.328 310.01 286.724ZM334.114 319.655C333.477 319.278 333.172 319.111 332.527 318.772C325.144 313.486 313.226 311.185 304.494 313.587C302.628 314.1 296.791 315.446 295.636 316.798C262.939 332.186 266.127 377.849 298.005 389.349C308.168 393.063 319.397 392.54 329.171 387.897C348.545 378.729 356.243 353.635 346.989 334.657C343.999 328.672 339.576 323.519 334.114 319.655Z"/><path fill="#065611" d="M222.381 434.581C231.162 434.202 241.031 434.409 249.881 434.411C267.175 434.334 284.468 434.429 301.76 434.696C310.734 434.793 327.662 433.865 335.654 434.871C332.554 435.229 329.528 435.587 326.414 435.825C324.626 434.742 323.889 434.966 321.572 435.077C319.177 434.939 317.55 434.894 315.131 434.958C294.079 436.464 269.869 436.098 248.733 435.196C240.213 434.832 230.744 435.266 222.381 434.581Z"/><path fill="#031A04" d="M321.572 435.077C323.889 434.966 324.626 434.742 326.414 435.825C323.851 436.07 321.225 436.438 318.686 436.582C320.087 435.973 320.322 435.862 321.572 435.077Z"/><path fill="#11FD3D" fill-opacity="0.98823529" d="M296.667 335.719C304.332 328.278 316.229 327.403 324.9 333.642C325.285 333.919 325.661 334.208 326.027 334.509C333.089 340.316 335.834 349.879 332.928 358.547C330.021 367.216 322.066 373.191 312.931 373.568C303.796 373.944 295.377 368.643 291.767 360.243C288.158 351.843 290.107 342.087 296.667 335.719Z"/><path fill="#100F10" fill-opacity="0.22745098" d="M295.636 316.798C296.791 315.446 302.628 314.1 304.494 313.587C313.226 311.185 325.144 313.486 332.527 318.772L330.894 318.758C329.358 318.738 325.234 316.545 324.254 319.696C323.191 323.118 329.771 324.019 328.862 326.664C328.441 327.891 325.836 331.991 324.9 333.642C316.229 327.403 304.332 328.278 296.667 335.719C296.739 335.317 296.817 334.916 296.902 334.516C297.735 330.929 296.588 331.638 294.144 328.763L293.486 327.98C296.715 323.939 298.939 321.197 304.726 320.805C308.379 320.558 307.579 314.855 306.706 314.737C303.11 314.251 299.759 316.636 295.636 316.798Z"/><path fill="#100F10" fill-opacity="0.098039217" d="M324.9 333.642C325.836 331.991 328.441 327.891 328.862 326.664C329.771 324.019 323.191 323.118 324.254 319.696C325.234 316.545 329.358 318.738 330.894 318.758L332.527 318.772C333.172 319.111 333.477 319.278 334.114 319.655C333.155 320.26 332.023 320.429 331.41 321.448C330.882 322.326 335.816 327.88 333.309 327.731C332.487 326.969 332.297 325.838 331.123 325.523C329.956 326.278 330.224 326.95 330.418 328.185C330.582 329.226 330.047 329.941 330.769 330.704C330.953 330.898 331.392 331.375 331.401 331.703C331.339 332.074 330.452 332.167 330.256 332.2C328.872 332.434 328.185 333.905 326.818 334.144C326.554 334.266 326.29 334.387 326.027 334.509C325.661 334.208 325.285 333.919 324.9 333.642Z"/><path fill="#080114" d="M719.952 417.315C725.279 421.985 731.652 425.582 737.278 429.827L736.403 429.713C735.821 429.623 735.008 429.408 734.467 429.774C734.34 429.859 734.266 430.004 734.271 430.157C734.288 430.893 736.51 432.711 737.115 433.149C738.943 435.103 739.136 435.203 740.379 437.47C733.679 431.95 727.156 424.003 719.498 418.116L719.952 417.315Z"/><path fill="#080114" d="M499.203 405.023L499.498 406.02C497.473 407.732 493.532 413.138 491.996 414.101C490.118 413.176 489.494 414.101 488.088 415.701C485.04 417.776 484.315 419.123 480.875 420.343C481.606 419.552 482.146 418.92 483 418.259L487.917 414.385C490.697 412.164 496.915 407.337 499.203 405.023Z"/><path fill="#080114" d="M645.58 478.579L646.162 479.673C645.499 480.542 643.043 484.171 642.513 484.66C642.238 481.864 639.366 485.721 638.874 486.495C636.276 488.847 635.476 490.21 632.502 491.904C634.896 488.829 642.432 481.839 645.58 478.579Z"/><path fill="#080114" d="M610.769 322.67C614.312 322.364 618.032 320.28 621.665 319.341L621.447 320.109C619.24 320.878 618.31 321.285 616.529 322.655C615.451 323.154 613.563 323.436 612.26 323.832L610.769 322.67Z"/><path fill="#200B4D" d="M698.404 526.173C698.556 522.141 698.452 518.382 698.889 514.325C699.028 515.534 698.714 518.171 699.855 518.278C699.831 520.346 699.488 520.8 699.612 523.142C699.143 524.219 698.796 525.064 698.404 526.173Z"/><path fill="#200B4D" d="M440.964 402.883C441.757 401.039 443.428 396.936 444.597 395.424L445.453 396.593C444.032 398.791 442.528 400.794 440.964 402.883Z"/><path fill="#5320B9" d="M499.203 405.023C499.855 404.268 502.412 400.952 503.58 401.361C503.715 402.119 500.14 405.475 499.498 406.02L499.203 405.023Z"/><path fill="#5320B9" d="M699.612 523.142C699.566 524.205 699.131 529.575 698.618 530.107L698.47 530.096C698.527 529.981 698.583 529.866 698.64 529.751L697.991 529.218C698.047 528.56 698.25 526.661 698.404 526.173C698.796 525.064 699.143 524.219 699.612 523.142Z"/><path fill="#200B4D" d="M716.221 414.348C717.449 415.224 718.878 416.258 719.952 417.315L719.498 418.116C718.281 417.101 717.208 416.108 715.957 415.092L716.221 414.348Z"/><path fill="#200B4D" d="M645.58 478.579C646.08 478.047 647.45 476.376 648.122 476.3C648.162 476.346 648.203 476.393 648.244 476.44C648.187 477.216 646.658 479.051 646.162 479.673L645.58 478.579Z"/><path fill="#200B4D" d="M408.766 378.733L409.657 379.091C409.16 380.148 409.035 380.472 408.648 381.583L407.761 381.299C408.112 380.318 408.346 379.683 408.766 378.733Z"/><path fill="#5320B9" d="M407.761 381.299L408.648 381.583C407.025 384.877 406.352 384.386 407.761 381.299Z"/><path fill="#7C24E0" d="M715.957 415.092C713.423 413.444 713.765 411.778 716.221 414.348L715.957 415.092Z"/><path fill="#5320B9" d="M612.26 323.832C611.972 323.872 609.527 324.333 609.347 323.74C609.514 323.212 610.289 322.925 610.769 322.67L612.26 323.832Z"/><path fill="#11FD3D" d="M552.266 806.015C544.845 805.984 524.78 797.867 517.48 794.257C487.078 779.222 460.766 752.314 449.788 719.863C440.051 691.08 441.482 659.942 454.87 632.705C466.155 609.744 489.183 588.074 513.774 580.438C540.872 572.024 563.144 573.922 588.246 586.605C588.824 597.286 588.717 615.52 585.893 625.504C583.527 623.933 580.925 622.097 578.417 620.805C551.83 607.102 519.648 616.207 503.362 640.973C494.44 654.716 491.267 671.411 494.525 687.469C498.579 707.114 510.425 724.276 527.356 735.034C563.634 758.536 614.689 748.015 646.546 721.628C657.129 712.862 667.076 702.049 674.425 690.462C676.176 687.661 677.881 684.832 679.54 681.976C679.362 686.313 675.648 692.365 673.794 696.358C653.734 739.567 617.25 776.477 574.512 797.436C567.896 800.681 557.931 802.916 552.266 806.015Z"/><path fill="#11FD3D" d="M476.36 515.495C460.31 543.148 427.853 533.107 401.927 535.54C396.034 536.093 380.616 550.441 374.141 552.852C364.844 556.313 354.984 553.156 351.386 543.503C345.971 528.974 359.846 521.116 368.692 512.629C373.831 507.839 380.868 502.09 386.48 497.836C391.374 494.991 397.917 495.417 403.191 494.825C415.612 493.432 430.62 495.661 442.547 493.152C449.021 491.79 454.458 478.239 457.128 472.428C465.453 475.772 471.02 481.65 474.604 489.817C478.911 499.628 477.21 505.824 476.36 515.495Z"/><path fill="#11FD3D" fill-opacity="0.98823529" d="M565.767 492.911C573.521 513.367 540.714 531.478 527.179 541.577C523.478 544.338 516.996 546.603 513.6 549.174C507.054 551.75 502.51 554.002 495.248 554.445C494.401 554.496 493.63 554.91 492.892 555.285C487.21 552.554 482.878 548.92 481.232 542.498C478.135 530.418 487.56 523.809 497.25 519.684C501.956 517.681 506.717 515.192 511.632 513.591C525.657 509.03 541.12 509.638 555.565 507.113C559.811 506.37 560.197 503.281 561.95 499.923C563.174 497.577 564.435 495.25 565.767 492.911Z"/><path fill="#8B5CF6" d="M588.246 586.605C607.064 599.373 618.946 613.495 623.563 636.203C628.74 661.659 620.862 686.899 601.743 704.486L600.159 702.48C615.973 676.337 609.804 644.382 585.893 625.504C588.717 615.52 588.824 597.286 588.246 586.605Z"/><path fill="#8B5CF6" fill-opacity="0.98823529" d="M492.892 555.285C493.63 554.91 494.401 554.496 495.248 554.445C502.51 554.002 507.054 551.75 513.6 549.174C515.051 550.583 512.98 550.347 512.802 551.14C512.927 551.239 513.053 551.337 513.179 551.435L513 551.367C513.817 551.629 514.698 551.701 515.539 551.879C513.185 552.59 509.919 553.563 507.499 554.012C501.541 555.118 499.489 557.174 492.892 555.285Z"/><path fill="#100F10" fill-opacity="0.35294119" d="M422.93 353.424C424.213 351.52 423.793 351.555 425.837 350.441C423.666 354.922 420.262 360.161 417.566 364.399C416.437 363.524 416.693 363.075 416.597 361.55L416.485 360.647C417.773 357.948 419.178 354.106 420.563 351.704C420.587 352.462 420.405 354.878 420.745 355.345C421.817 355.667 422.721 354.382 422.93 353.424Z"/><path fill="#080114" fill-opacity="0.89803922" d="M700.935 488.395C701.424 496.766 700.483 509.76 699.855 518.278C698.714 518.171 699.028 515.534 698.889 514.325L698.612 507.059C699.054 507.369 698.903 507.308 699.12 507.363C699.461 507.097 699.962 501.573 700.008 500.909C700.145 498.125 700.595 490.652 700.935 488.395Z"/><path fill="#100F10" fill-opacity="0.51372552" d="M416.485 360.647L416.597 361.55C416.693 363.075 416.437 363.524 417.566 364.399C416.685 366.015 415.394 368.062 414.427 369.704C413.652 369.485 413.417 369.409 412.671 369.096C413.896 366.162 415.042 363.513 416.485 360.647Z"/><path fill="#080114" fill-opacity="0.98431373" d="M412.671 369.096C413.417 369.409 413.652 369.485 414.427 369.704C412.815 372.823 411.109 375.891 409.657 379.091L408.766 378.733C409.659 376.247 411.334 371.413 412.671 369.096Z"/><path fill="#100F10" fill-opacity="0.38431373" d="M737.115 433.149C736.51 432.711 734.288 430.893 734.271 430.157C734.266 430.004 734.34 429.859 734.467 429.774C735.008 429.408 735.821 429.623 736.403 429.713L737.278 429.827C738.004 430.326 739.078 430.947 739.637 431.583C738.061 431.917 738.323 432.07 737.115 433.149Z"/><path fill="#100F10" fill-opacity="0.40784314" d="M638.874 486.495C639.366 485.721 642.238 481.864 642.513 484.66C641.456 486.161 640.218 488.019 639.093 489.415L638.874 486.495Z"/><path fill="#100F10" fill-opacity="0.62352943" d="M446.688 391.936C447.324 390.345 448.679 388.287 449.771 386.959C449.25 388.828 447.952 390.288 449.816 390.455C449.172 391.692 448.368 392.591 447.507 393.689L446.688 391.936Z"/><path fill="#7C24E0" fill-opacity="0.98823529" d="M596.617 708.637C597.904 706.18 598.631 704.794 600.159 702.48L601.743 704.486C599.555 706.399 598.932 706.96 596.617 708.637Z"/><path fill="#100F10" fill-opacity="0.40784314" d="M488.088 415.701C489.494 414.101 490.118 413.176 491.996 414.101C490.68 415.709 489.616 417.008 488.184 418.526C488.572 417.039 489.28 416.562 488.088 415.701Z"/><path fill="#100F10" fill-opacity="0.15686275" d="M621.447 320.109C620.922 320.945 620.937 320.927 621.426 321.746C619.64 322.376 618.385 322.482 616.529 322.655C618.31 321.285 619.24 320.878 621.447 320.109Z"/><path fill="#080114" fill-opacity="0.26274511" d="M446.688 391.936L447.507 393.689C446.831 394.722 446.187 395.603 445.453 396.593L444.597 395.424C445.298 394.181 445.911 393.144 446.688 391.936Z"/><path fill="#100F10" fill-opacity="0.094117649" d="M420.635 351.296L420.877 351.921C421.278 353.173 421.627 353.152 422.93 353.424C422.721 354.382 421.817 355.667 420.745 355.345C420.405 354.878 420.587 352.462 420.563 351.704L420.635 351.296Z"/><path fill="#100F10" fill-opacity="0.38039216" d="M315.131 434.958C317.55 434.894 319.177 434.939 321.572 435.077C320.322 435.862 320.087 435.973 318.686 436.582C318.302 436.555 317.919 436.528 317.535 436.501C318.865 435.122 316.572 435.308 315.131 434.958Z"/><path fill="#100F10" fill-opacity="0.53725493" d="M700.008 500.909C699.962 501.573 699.461 507.097 699.12 507.363C698.903 507.308 699.054 507.369 698.612 507.059C698.543 505.714 698.5 504.85 698.558 503.493C699.399 502.304 699.448 502.231 700.008 500.909Z"/></svg>